<?xml version="1.0" encoding="UTF-8"?>
<!DOCTYPE svg PUBLIC "-//W3C//DTD SVG 1.1//EN" "http://www.w3.org/Graphics/SVG/1.1/DTD/svg11.dtd">
<!-- Creator: CorelDRAW X7 -->
<svg xmlns="http://www.w3.org/2000/svg" xml:space="preserve" width="585.043mm" height="392.544mm" version="1.1" style="shape-rendering:geometricPrecision; text-rendering:geometricPrecision; image-rendering:optimizeQuality; fill-rule:evenodd; clip-rule:evenodd"
viewBox="0 0 112924 75768"
 xmlns:xlink="http://www.w3.org/1999/xlink">
 <defs>
  <style type="text/css">
   <![CDATA[
    .fil16 {fill:#163560}
    .fil14 {fill:#172A49}
    .fil19 {fill:#1B3051}
    .fil9 {fill:#233862}
    .fil12 {fill:#274672}
    .fil18 {fill:#2B478B}
    .fil20 {fill:#2E3552}
    .fil13 {fill:#395A8E}
    .fil11 {fill:#77A4E5}
    .fil3 {fill:#8E342E}
    .fil7 {fill:#B7D3F3}
    .fil6 {fill:#D2E3FC}
    .fil17 {fill:#EAC3A0}
    .fil0 {fill:#EBF3FA}
    .fil2 {fill:#ED7D2B}
    .fil10 {fill:#ED975D}
    .fil5 {fill:#ED985F}
    .fil1 {fill:#F99746}
    .fil15 {fill:#F9DDBF}
    .fil4 {fill:#FFB27D}
    .fil8 {fill:white}
   ]]>
  </style>
 </defs>
 <g id="Layer_x0020_1">
  <metadata id="CorelCorpID_0Corel-Layer"/>
  <g id="_261944584">
   <path class="fil0" d="M1016 75768c-263,-187 -605,-433 -1016,-737l0 -75030 1 -1 112923 0 0 75768 -111908 0z"/>
   <path class="fil1" d="M9839 48341c0,0 -294,-2966 -1009,-5620 -146,-542 260,-1076 822,-1076l7536 0 1231 6696c0,0 -8739,266 -8580,0z"/>
   <path class="fil2" d="M10557 48341c0,0 -294,-2966 -1009,-5620 -146,-542 260,-1076 822,-1076l7536 0 1231 6696c0,0 -8739,266 -8580,0z"/>
   <path class="fil1" d="M63953 48341c0,0 -293,-2966 -1008,-5620 -146,-542 260,-1076 821,-1076l7536 0 1231 6696c0,0 -8738,266 -8580,0z"/>
   <path class="fil2" d="M64671 48341c0,0 -293,-2966 -1008,-5620 -146,-542 259,-1076 822,-1076l7536 0 1231 6696c0,0 -8739,266 -8581,0z"/>
   <path class="fil3" d="M21462 28768c0,0 -2488,-1428 -4232,-77 -1744,1352 -1214,2162 -2608,4604 -1025,1795 579,2611 3241,3058 2661,447 4520,1601 5195,572 676,-1029 507,-6903 -1596,-8157z"/>
   <path class="fil4" d="M21996 40746c-542,419 -885,1930 -1760,2180 -3279,936 -5039,-2958 -5614,-4858 439,-283 862,-361 1106,-403 238,-40 490,-72 698,-93 358,-305 854,-1501 884,-3320l158 34 2651 582c0,0 -77,837 -96,1626 -14,617 -34,764 14,838 206,34 449,561 449,561l2 3c38,55 860,1264 1508,2850z"/>
   <path class="fil5" d="M20120 34868c0,0 -78,837 -96,1626 -1489,-73 -2249,-1448 -2556,-2208l2652 582z"/>
   <path class="fil6" d="M30353 48682c-200,1 -403,1 -605,0 -1379,-6 -2734,-54 -3311,-203 -563,-145 -2730,-1614 -4464,-3393l-1 -1c-134,321 -236,565 -238,585 -51,399 -136,800 -239,1184 -393,1466 -1049,2696 -1071,2739l-929 -2 -7249 -10c0,0 1369,-2109 1001,-7513 -9,-137 1262,-4496 1262,-4496 0,0 988,-173 2130,-265 108,98 330,2966 1758,3132 232,27 1722,2303 1722,2303l452 -2325 -534 -3085c685,201 1061,273 1630,500 388,156 709,442 910,808 997,1823 4236,7705 4567,7842 309,128 1476,362 2710,587l1 0c900,164 2191,1607 498,1613z"/>
   <polygon class="fil6" points="20941,49593 20422,49595 20424,49593 "/>
   <path class="fil4" d="M20561 35665c0,0 -3525,-69 -3448,-2264 77,-2195 -327,-3682 1928,-3730 2254,-49 2662,804 2814,1543 153,738 -374,4413 -1294,4451z"/>
   <path class="fil7" d="M30353 48682c-200,1 -403,1 -605,0 -1379,-6 -2734,-54 -3311,-203 -563,-145 -2730,-1614 -4464,-3393l-1 -1c0,0 366,-1401 524,-1635 157,-235 779,2043 2233,2971 1453,927 3728,1576 4833,1313 744,-177 820,492 791,948z"/>
   <path class="fil8" d="M19869 34444c0,0 23,262 601,304 0,0 485,35 505,-248 0,0 -442,-265 -1106,-56z"/>
   <path class="fil4" d="M26182 47348c0,0 1512,-87 1659,-8 239,129 1051,652 1178,804 127,151 461,761 461,761 0,0 -145,40 -210,-19 -65,-58 -558,-582 -558,-582l507 770c0,0 -176,-8 -245,-85 -70,-76 -543,-557 -543,-557l-161 -32c0,0 164,132 253,251 89,119 148,248 148,248 0,0 -144,-25 -189,-47 -45,-21 -470,-392 -470,-392l225 307c0,0 -152,-8 -201,-42 -50,-33 -381,-338 -440,-338 -58,1 -480,-17 -662,-113 -181,-96 -750,-316 -750,-316l-2 -610z"/>
   <path class="fil7" d="M16950 36608c0,0 -1114,573 -1344,805 0,0 1057,2702 2581,3963l407 -289 0 657 1526 998c0,0 -3248,-5317 -3170,-6134z"/>
   <path class="fil7" d="M21495 46854c-393,1466 -1049,2696 -1071,2739l517 0 -519 2 -4816 0 558 -4c-14,-48 814,-2292 -558,-3212 -1375,-921 -1873,-3186 -1873,-3186l4374 -1068c0,0 1802,2630 2315,3131 394,385 1312,414 1312,414l-239 1184z"/>
   <path class="fil7" d="M19995 37307c0,0 507,3701 125,5435 0,0 624,-1147 712,-1357l-105 -631 402 140c0,0 -319,-2955 -676,-3445 -159,-216 -442,-524 -442,-524l-16 382z"/>
   <path class="fil4" d="M26184 47958c0,0 -3711,324 -5762,233l0 -2015c1344,371 5760,1172 5760,1172l2 610z"/>
   <path class="fil6" d="M15606 37413c0,0 -2122,48 -2779,758 -657,709 652,4719 652,4719 0,0 3955,4844 5934,5186 0,0 865,118 1269,125 0,0 -396,-1153 340,-1876 0,0 -847,-237 -882,-342 -35,-106 -4534,-8570 -4534,-8570z"/>
   <path class="fil3" d="M21273 29899c0,0 -851,3121 -4592,3037 0,0 -387,-2946 1628,-3421 2015,-475 2964,384 2964,384z"/>
   <path class="fil3" d="M21858 32081c0,0 208,-935 -1154,-1695 0,0 966,-1093 1378,-460 411,634 -224,2155 -224,2155z"/>
   <path class="fil2" d="M17068 36201c0,0 -669,352 -813,784 0,0 632,1653 2786,2223 0,0 -1553,-1816 -1973,-3007z"/>
   <path class="fil2" d="M20021 36608c0,0 70,2072 -980,2600 0,0 1291,-151 1447,-1312 92,-689 -134,-1135 -467,-1288z"/>
   <path class="fil2" d="M19150 39036c0,0 -476,1441 -356,1812 120,371 970,2044 981,2585 0,0 612,-852 596,-1881 -16,-1029 -1221,-2516 -1221,-2516z"/>
   <path class="fil1" d="M19250 39070c0,0 -113,993 0,1278 113,285 704,634 1259,697 0,0 153,-422 -90,-729 -243,-306 -1099,-836 -1169,-1246z"/>
   <path class="fil2" d="M18794 39081c0,0 51,-274 189,-338 137,-63 471,120 513,222 43,101 -28,327 -218,369 -190,43 -521,-126 -484,-253z"/>
   <path class="fil9" d="M78814 29211c-438,-348 -1230,-579 -1513,-570 -205,7 -410,-13 -614,-40 -2432,-327 -3896,3208 -3983,4279 -158,1974 -1202,2275 -2672,3511 -2948,2479 -2083,5359 -472,6430 967,642 2672,0 2672,0 24,17 4661,-2592 6947,-3852 3427,-486 1048,-8633 -365,-9758z"/>
   <path class="fil6" d="M87428 47484c0,0 -3197,-808 -4012,-1515 -692,-600 -2154,-6172 -2851,-7587 -471,-954 -2567,-1591 -3142,-1708 -16,-18 490,5179 -279,4567 -2360,-1877 -1980,-3183 -2773,-4849 -47,-100 -1154,1512 -2173,3444 -1125,2132 -816,2584 -499,3912 58,242 106,465 146,670 380,1933 59,2325 514,3587 132,365 3602,691 5577,559 628,-41 1105,-128 1275,-275 606,-526 638,396 697,-3434 154,379 1182,3081 1813,3373 887,411 5960,113 5960,113l-253 -857z"/>
   <path class="fil4" d="M77546 38045c11,6 238,2966 -281,3022 -776,83 -3140,-4601 -3129,-4601 324,-15 681,-299 955,-2162l138 50 2326 836c0,0 -169,746 -278,1457 -91,596 142,1313 269,1398z"/>
   <path class="fil10" d="M77555 35190c0,0 -169,746 -278,1457 -1336,-241 -1859,-1571 -2048,-2293l2326 836z"/>
   <path class="fil4" d="M77900 35931c0,0 -3180,-427 -2884,-2404 296,-1977 85,-3363 2129,-3174 2043,189 2324,1002 2386,1686 61,684 -796,3952 -1631,3892z"/>
   <path class="fil9" d="M79415 30956c0,0 -2037,1754 -3422,1896 -1385,141 -1909,-303 -1909,-303 0,0 816,-678 1307,-1772 145,-322 451,-544 804,-574 988,-85 2863,-124 3220,753z"/>
   <path class="fil9" d="M78142 30798c0,0 681,659 896,1148 207,471 269,1598 104,2046 0,0 1061,-2063 460,-3066 -637,-1063 -1461,-128 -1460,-128z"/>
   <path class="fil7" d="M77936 48564c-1975,132 -5445,-194 -5577,-559 -455,-1262 -134,-1654 -514,-3587l953 -2681c0,0 -158,2986 723,3771 879,786 3605,1516 4033,2172 206,315 342,631 382,884z"/>
   <path class="fil4" d="M75674 47309c0,0 1947,-434 2262,-261 314,173 1082,802 1179,1021 96,220 -700,-166 -959,-235 -168,-45 -609,108 -828,181 -919,306 -1482,148 -1482,148l-172 -854z"/>
   <path class="fil6" d="M74369 36391c0,0 -2615,161 -3520,1424 -1275,1778 -3803,9353 -2354,10363 1631,1138 7426,298 7426,298 0,0 193,-901 -75,-1337 -268,-436 -4629,-1140 -4830,-1342 -201,-201 2516,-3924 2516,-4527 0,-604 837,-4879 837,-4879z"/>
   <path class="fil4" d="M78030 47590c0,0 408,526 542,589 134,63 220,48 220,48l-275 -495 -487 -142z"/>
   <path class="fil4" d="M77936 47048l1187 576c0,0 -51,82 -197,76 -146,-7 -515,-141 -515,-141l-475 -511z"/>
   <path class="fil7" d="M74477 36269c0,0 -369,-32 -1114,265 0,0 846,2997 2264,4169l378 -269 0 611 1419 929c0,0 -3020,-4945 -2947,-5705z"/>
   <path class="fil7" d="M77308 36919c0,0 472,3442 116,5055 0,0 581,-1067 662,-1263l-98 -586 376 130c0,0 -298,-2748 -630,-3203 -147,-202 -410,-488 -410,-488l-16 355z"/>
   <path class="fil2" d="M74821 35601c0,0 -615,319 -749,721 0,0 345,1834 2349,2365 0,0 -1210,-1979 -1600,-3086z"/>
   <path class="fil2" d="M77297 36525c0,0 -53,271 -94,704 -49,522 -227,1179 -782,1458 0,0 1200,-140 1345,-1221 87,-640 -160,-799 -469,-941z"/>
   <path class="fil2" d="M76522 38527c0,0 -442,1340 -331,1685 112,345 903,1900 912,2404 0,0 570,-792 555,-1749 -15,-958 -1136,-2340 -1136,-2340z"/>
   <path class="fil1" d="M76616 38558c0,0 -106,924 0,1189 104,265 655,589 1170,648 0,0 142,-393 -84,-677 -226,-285 -1022,-778 -1086,-1160z"/>
   <path class="fil2" d="M76191 38569c0,0 48,-255 176,-314 127,-59 438,112 477,206 40,94 -26,304 -203,344 -176,39 -484,-117 -450,-236z"/>
   <path class="fil9" d="M77438 43566c0,-64 52,-116 117,-116 64,0 115,52 115,116 0,64 -51,116 -115,116 -65,0 -117,-52 -117,-116z"/>
   <path class="fil9" d="M77076 45414c0,-64 52,-116 116,-116 64,0 116,52 116,116 0,64 -52,116 -116,116 -64,0 -116,-52 -116,-116z"/>
   <polygon class="fil11" points="8070,75768 8070,48962 112924,48962 112924,75768 "/>
   <polygon class="fil12" points="112924,50483 5659,50483 5659,48341 112924,48341 "/>
   <polygon class="fil7" points="112924,67590 8070,67590 8070,57299 112924,57299 "/>
   <polygon class="fil9" points="84166,48341 74330,48341 74330,47900 84166,47900 "/>
   <polygon class="fil9" points="29109,48341 22221,48341 22221,47900 29109,47900 "/>
   <polygon class="fil13" points="93936,46144 80956,46144 82229,36858 95209,36858 "/>
   <polygon class="fil9" points="94242,46144 81262,46144 82535,36858 95515,36858 "/>
   <polygon class="fil13" points="89933,40873 88835,48341 86233,48341 86281,48009 87331,40873 "/>
   <polygon class="fil14" points="89025,48341 86423,48341 87521,40873 90123,40873 "/>
   <path class="fil14" d="M86660 48341l4312 0c0,-183 -149,-332 -333,-332l-3930 0 -49 332z"/>
   <path class="fil13" d="M88272 48341l0 0 -2039 0 48 -332 1660 0c183,0 331,149 331,332z"/>
   <path class="fil14" d="M105089 75754l23 0c138,0 249,-115 247,-254l-373 -16273 -1100 -129 938 16403c8,142 124,253 265,253z"/>
   <path class="fil14" d="M111496 75754l24 0c138,0 249,-115 246,-254l-374 -16273 -1099 -129 937 16403c9,142 125,253 266,253z"/>
   <path class="fil14" d="M93816 75754l-23 0c-139,0 -250,-115 -247,-254l373 -16273 1100 -129 -938 16403c-8,142 -124,253 -265,253z"/>
   <path class="fil14" d="M112224 58218l0 -11151c0,-1962 -1581,-3553 -3532,-3553l-7987 0c-1950,0 -3532,1591 -3532,3553l0 11577 15051 -426z"/>
   <path class="fil14" d="M95742 59978l15419 0c588,0 1063,-476 1063,-1064l0 -696 -16482 0 0 1760z"/>
   <path class="fil14" d="M93897 59978l11662 0c434,0 787,-352 787,-786l0 -188c0,-434 -353,-786 -787,-786l-11662 0c-435,0 -787,352 -787,786l0 188c0,434 352,786 787,786z"/>
   <path class="fil15" d="M100119 40207c0,0 718,-243 863,1232 110,1120 -667,9814 -1251,10506 -1645,1944 -3706,1122 -4514,1417l-762 -684c0,0 2678,-1977 2882,-2622 785,-2482 249,-8912 2782,-9849z"/>
   <path class="fil16" d="M100649 32304c0,0 -46,-1594 2057,-1907 2103,-313 2684,178 3042,715 358,536 1028,2726 961,3598 -67,871 -2466,1949 -2427,2457 40,509 -3633,-4863 -3633,-4863z"/>
   <path class="fil17" d="M99147 47574c0,0 11,1604 6,2260 -6,774 -1536,2844 -1536,2844l2082 -359c0,0 1296,-1573 1294,-1675 -3,-102 -1846,-3070 -1846,-3070z"/>
   <path class="fil4" d="M90895 74378c68,539 -667,697 -1522,772 -855,75 -590,244 -1756,504 -1165,259 -1648,-51 -1738,-209 -81,-140 457,-384 1029,-659 73,-34 144,-69 216,-105 644,-316 990,-928 1481,-1501 465,-542 864,-2238 864,-2238l1583 -406c0,0 -394,1528 -527,2180 -78,383 72,802 203,1121 71,174 143,351 167,541z"/>
   <path class="fil9" d="M89373 75150c-855,75 -590,244 -1756,504 -1165,259 -1648,-51 -1738,-209 -81,-140 457,-384 1029,-659l10 10c0,0 835,255 1778,-44 769,-243 1503,-743 2032,-915 71,174 143,351 167,541 68,539 -667,697 -1522,772z"/>
   <path class="fil9" d="M102744 52409c0,0 -10580,1098 -12325,2717 -1744,1620 -1433,16710 -1433,16710 272,282 472,275 901,241 412,-32 1251,-386 1251,-386 0,0 2266,-7409 2294,-9125 28,-1716 387,-4627 1107,-4799 720,-172 9285,789 10225,-1917 939,-2706 -621,-4932 -621,-4932l-1399 1491z"/>
   <path class="fil15" d="M107687 55131c-457,305 -1274,776 -2643,826 -2451,89 -5509,-204 -6112,-773 -156,-146 -232,-390 -254,-698 -66,-941 383,-2488 684,-3769 197,-832 201,-1513 91,-1880 -332,-1118 -1236,-3434 -1325,-4183 -89,-749 771,-3913 1991,-4447 3039,-1333 6020,-576 6020,-576 1864,378 1975,4115 1356,7496 -15,87 -32,174 -48,259 -671,3434 1513,6891 240,7745z"/>
   <path class="fil4" d="M101526 40126c33,218 630,572 1904,235 1222,-322 1547,-642 1547,-905 -1,-311 -710,-807 -703,-2720l-146 29 -2463 487c0,0 56,776 58,1506 2,613 -253,1005 -197,1368z"/>
   <path class="fil10" d="M101665 37252c0,0 56,776 58,1506 1378,-39 2106,-1296 2405,-1993l-2463 487z"/>
   <path class="fil4" d="M101204 37944c0,0 3261,54 3263,-1977 2,-2031 425,-3392 -1656,-3513 -2083,-120 -2488,655 -2653,1333 -166,677 199,4090 1046,4157z"/>
   <path class="fil16" d="M101326 32405c0,0 892,2383 2262,2735 1370,352 1965,-15 1965,-15 0,0 -1052,-835 -1269,-2292 0,0 -2285,-1562 -2958,-428z"/>
   <path class="fil16" d="M101547 32598c0,0 -667,532 -829,1049 -163,518 -236,1582 -547,1546 0,0 -672,-1619 83,-2536 802,-971 1293,-59 1293,-59z"/>
   <path class="fil4" d="M99450 74752c26,543 -719,639 -1578,642 -858,2 -607,193 -1790,354 -60,8 -117,14 -173,20l-750 0c-512,-64 -740,-262 -793,-374 -70,-147 486,-345 1078,-570 75,-28 150,-58 224,-87 668,-261 1062,-841 1597,-1371 506,-501 -719,-2812 -719,-2812l1487 -794c0,0 338,1666 753,3120 107,376 437,990 542,1319 57,179 114,362 122,553z"/>
   <path class="fil17" d="M107621 54727c-456,305 -1208,1180 -2577,1230 -2261,-515 -4834,-1114 -6366,-1471 -66,-941 1638,-713 1939,-1993 2041,-943 3290,-2437 4081,-3822 603,-1054 909,-3340 909,-3340l1888 1796c-15,87 -32,174 -48,259 -671,3434 1448,6488 174,7341z"/>
   <path class="fil9" d="M97872 75394c-858,2 -607,193 -1790,354 -60,8 -117,14 -173,20l-750 0c-512,-64 -740,-262 -793,-374 -70,-147 486,-345 1078,-570l9 10c0,0 813,325 1776,106 786,-178 1557,-614 2099,-741 57,179 114,362 122,553 26,543 -719,639 -1578,642z"/>
   <path class="fil18" d="M104987 52775c-3121,-241 -10669,843 -12211,2006 -1897,1429 3523,16899 3523,16899 0,0 629,61 829,38 860,-98 1487,-362 1487,-362 0,0 -297,-9102 -930,-10844 -585,-1609 -944,-2178 -211,-2274 733,-96 9883,1071 10647,-1692 596,-2157 -285,-4154 -285,-4154 0,0 -377,573 -2849,383z"/>
   <path class="fil15" d="M106390 39706c0,0 963,306 1496,1689 666,1729 1221,8697 636,9389 -1645,1944 -7130,2356 -7937,2651l-222 -920c0,0 5854,-2950 5765,-3620 -89,-670 -1528,-9455 262,-9189z"/>
   <path class="fil16" d="M104732 31198c0,0 -134,-850 1046,-1070 1180,-220 1203,2287 1329,2891 126,604 -189,966 -639,1003 -450,37 -1736,-2824 -1736,-2824z"/>
   <path class="fil4" d="M100299 52475c0,0 -1667,-472 -2065,-362 -397,111 -1758,1012 -1567,1257 192,244 1391,-147 1942,-73 552,74 979,346 1376,287 397,-58 812,-214 812,-214l-498 -895z"/>
   <path class="fil4" d="M100299 52475c0,0 -816,-420 -1048,-658 -29,-30 -78,-24 -101,12 -63,98 -121,287 165,476 412,271 984,170 984,170z"/>
   <path class="fil4" d="M94455 52678c0,0 -1730,95 -2070,328 -340,233 -1335,1527 -1074,1696 260,170 1267,-589 1813,-698 545,-109 1038,10 1394,-175 357,-184 699,-467 699,-467l-762 -684z"/>
   <polygon class="fil13" points="37362,46144 24382,46144 25654,36858 38634,36858 "/>
   <polygon class="fil9" points="37667,46144 24687,46144 25960,36858 38940,36858 "/>
   <polygon class="fil13" points="33358,40873 32260,48341 29658,48341 29707,48009 30756,40873 "/>
   <polygon class="fil14" points="32450,48341 29848,48341 30946,40873 33548,40873 "/>
   <path class="fil14" d="M30085 48341l4312 0c0,-183 -149,-332 -332,-332l-3931 0 -49 332z"/>
   <path class="fil13" d="M31698 48341l0 0 -2040 0 49 -332 1659 0c183,0 332,149 332,332z"/>
   <path class="fil19" d="M35776 75768c336,-419 212,-1939 161,-2436 -11,-100 -18,-158 -18,-158 0,0 -2408,-1927 -2739,-452 -9,47 -22,91 -35,136 -417,1379 -2285,2006 -3365,2181 -698,113 -958,475 -1055,729l7051 0z"/>
   <path class="fil2" d="M47961 52863c-255,0 -12077,2220 -14032,4641 -977,1209 -1122,15174 -1122,15174 0,0 1208,1499 3818,628 0,0 1914,-9554 1773,-12452 -39,-802 8077,-117 9563,-501 1485,-384 5115,-3616 4315,-5190 -800,-1575 -4315,-2300 -4315,-2300z"/>
   <path class="fil4" d="M39401 52207c0,0 -757,653 -1533,838 -442,105 -871,225 -1126,342 -702,322 -2033,1761 -1909,1904 396,458 1996,-737 2302,-652 306,84 -502,778 -182,967 168,99 483,-501 778,-586 399,-113 664,-717 784,-758 232,-80 1204,-951 1204,-951l-318 -1104z"/>
   <path class="fil9" d="M32660 75768c336,-419 212,-1939 161,-2436 -11,-100 -18,-158 -18,-158 0,0 -2408,-1927 -2738,-452 -10,47 -23,91 -36,136 -417,1379 -2285,2006 -3364,2181 -699,113 -959,475 -1056,729l7051 0z"/>
   <path class="fil1" d="M44477 52863c-255,0 -12076,2220 -14032,4641 -977,1209 -1122,15174 -1122,15174 0,0 1209,1499 3819,628 0,0 1913,-9554 1772,-12452 -39,-802 8077,-117 9563,-501 1486,-384 5115,-3616 4315,-5190 -799,-1575 -4315,-2300 -4315,-2300z"/>
   <path class="fil4" d="M45217 38497c850,-70 1742,-297 2513,-547 963,-312 1740,-769 1239,-1650 -461,-811 -1207,-2624 -1157,-4126l-1793 1445 -1217 981c0,0 5,578 138,1592 24,185 53,384 86,598 27,172 -52,344 -200,436 -9,5 -18,11 -27,17 -606,380 -294,1312 418,1254z"/>
   <path class="fil10" d="M44802 34361c0,0 -63,210 44,986 1086,-177 2101,-1043 2101,-1043 -553,-152 -754,-749 -1166,-694l-979 751z"/>
   <path class="fil4" d="M43798 34538c0,0 4175,694 4567,-1913 392,-2608 1195,-4274 -1454,-4827 -2650,-553 -3319,364 -3661,1202 -343,838 -529,5290 548,5538z"/>
   <path class="fil9" d="M42636 27846c-180,628 300,1393 1106,1644 1196,374 931,1841 1470,1821 538,-20 755,-843 1235,-185 410,561 -341,1226 -289,1533 89,528 916,1609 1662,1555 745,-54 2140,-3598 1861,-4694 -279,-1096 -1395,-2252 -2451,-2411 -1057,-160 -2523,296 -2862,296 -339,0 -1635,102 -1732,441z"/>
   <path class="fil15" d="M41600 52081c70,602 197,1012 396,1145 622,417 1448,935 2369,1448 3266,1822 7738,3580 8648,501 1068,-3615 366,-10404 -681,-14620 -604,-2430 -2272,-4979 -3400,-4976 -1922,3 -4685,510 -5801,3262 -431,1066 -1066,4761 -1390,8145 -193,2016 -276,3921 -141,5095z"/>
   <path class="fil17" d="M49126 35602l-579 -930c0,0 -3752,380 -4406,2597 0,0 3019,-1620 4985,-1667z"/>
   <path class="fil17" d="M41600 52081c70,602 197,1012 396,1145 622,417 1448,935 2369,1448 961,-584 2935,-1978 3396,-3622 603,-2149 181,-4792 181,-4792l-6342 5821z"/>
   <path class="fil15" d="M48343 38908c0,0 -335,9235 -860,11060 -895,3114 -9063,4223 -9063,4223 0,0 -481,-546 -266,-1451 0,0 4883,-3849 5026,-4581 142,-733 -1064,-5698 315,-7504 1379,-1805 3921,-3369 4848,-1747z"/>
   <path class="fil14" d="M60107 75768c25,-54 36,-115 30,-178l-1467 -14786 -1280 115 2104 14849 613 0z"/>
   <path class="fil14" d="M52555 75768c25,-54 36,-115 30,-178l-1467 -14786 -1281 115 2105 14849 613 0z"/>
   <path class="fil14" d="M37645 75768c-25,-54 -36,-115 -30,-178l1467 -14786 1280 115 -2104 14849 -613 0z"/>
   <path class="fil14" d="M59326 58709l1393 -12349c183,-1780 -408,-3522 -2953,-3657l-4477 -275c-2654,-110 -3852,2118 -4188,3834l-2658 13574 12883 -1127z"/>
   <path class="fil14" d="M58575 61020l-19866 0c-401,0 -729,-328 -729,-729l0 -909c0,-401 328,-729 729,-729l20595 0 0 1638c0,401 -328,729 -729,729z"/>
   <path class="fil14" d="M58738 61020l-11729 0c-311,0 -566,-255 -566,-566l0 -1235c0,-311 255,-566 566,-566l12295 0 0 1801c0,311 -255,566 -566,566z"/>
   <polygon class="fil1" points="26227,1002 26227,12252 26103,12252 26103,1016 "/>
   <polygon class="fil1" points="40978,872 40978,12252 40854,12252 40854,865 "/>
   <polygon class="fil1" points="43853,17685 22290,17685 22290,12251 43853,12251 "/>
   <polygon class="fil8" points="25288,14011 24789,14149 24686,13753 25431,13516 25771,13516 25771,16307 25288,16307 "/>
   <polygon class="fil8" points="41560,13865 29341,13865 29341,13461 41560,13461 "/>
   <polygon class="fil8" points="39399,14977 29341,14977 29341,14573 39399,14573 "/>
   <polygon class="fil8" points="36507,16089 29341,16089 29341,15685 36507,15685 "/>
   <polygon class="fil1" points="77955,1239 77955,12252 77830,12252 77830,1252 "/>
   <polygon class="fil1" points="92706,0 92706,12252 92582,12252 92582,0 "/>
   <polygon class="fil1" points="95581,17685 74018,17685 74018,12251 95581,12251 "/>
   <path class="fil8" d="M76505 15923l954 -812c381,-320 519,-498 519,-748 0,-273 -194,-432 -447,-432 -254,0 -428,139 -642,416l-344 -269c265,-372 526,-582 1021,-582 543,0 915,333 915,835 0,436 -233,670 -721,1073l-570 476 1319 0 0 427 -2004 0 0 -384z"/>
   <polygon class="fil8" points="93287,13865 81069,13865 81069,13461 93287,13461 "/>
   <polygon class="fil8" points="91127,14977 81069,14977 81069,14573 91127,14573 "/>
   <polygon class="fil8" points="88235,16089 81069,16089 81069,15685 88235,15685 "/>
   <polygon class="fil20" points="0,75768 112924,75768 112924,75768 "/>
  </g>
 </g>
</svg>
